<svg width="210" height="158" viewBox="0 0 210 210" preserveAspectRatio="none" xmlns="http://www.w3.org/2000/svg"><title>frog-yellow</title><g transform="translate(-13 5)" fill="none" fill-rule="evenodd"><path d="M13 0h210v210H13z"/><circle fill="#FAFA41" cx="73" cy="45" r="24"/><circle fill="#FAFA41" cx="163" cy="45" r="24"/><g transform="translate(0 75)" fill="#ECEC00"><ellipse transform="rotate(-27 46.538 57.027)" cx="46.538" cy="57.027" rx="26.5" ry="50.5"/><rect x="13" y="89" width="56" height="15" rx="9"/></g><g transform="matrix(-1 0 0 1 236 75)" fill="#ECEC00"><ellipse transform="rotate(-27 46.538 57.027)" cx="46.538" cy="57.027" rx="26.5" ry="50.5"/><rect x="13" y="89" width="56" height="15" rx="9"/></g><rect fill="#FAFA41" x="49" y="41" width="138" height="138" rx="9"/><circle stroke="#FFF" stroke-width="5" fill="#000" cx="73" cy="45" r="12"/><circle stroke="#FFF" stroke-width="5" fill="#000" cx="163" cy="45" r="12"/><rect fill="#FFFF95" x="62" y="93" width="110" height="70" rx="9"/></g></svg>