<svg width="160" height="160" viewBox="0 0 160 160" preserveAspectRatio="none" xmlns="http://www.w3.org/2000/svg" xmlns:xlink="http://www.w3.org/1999/xlink"><title>lilypad-yellow</title><defs><path id="a" d="M68.141 159.127c3.87.575 7.83-33.025 11.859-33.025 5.463 0 10.799 33.35 15.954 32.307C132.493 151.014 160 118.719 160 80c0-44.183-35.817-80-80-80S0 35.817 0 80c0 40.153 29.582 73.397 68.141 79.127z"/></defs><g fill="none" fill-rule="evenodd"><mask id="b" fill="#fff"><use xlink:href="#a"/></mask><use fill="#DDDD02" xlink:href="#a"/><path d="M68.141 174.127c3.87.575 7.83-33.025 11.859-33.025 5.463 0 10.799 33.35 15.954 32.307C132.493 166.014 160 133.719 160 95c0-44.183-35.817-80-80-80S0 50.817 0 95c0 40.153 29.582 73.397 68.141 79.127z" fill="#C4C403" mask="url(#b)"/></g></svg>